<mxfile host="app.diagrams.net" agent="Mozilla/5.0 (Windows NT 10.0; Win64; x64) AppleWebKit/537.36 (KHTML, like Gecko) Chrome/131.0.0.0 Safari/537.36 Edg/131.0.0.0" version="24.8.6" pages="2">
  <diagram name="Page-1" id="5AF6-LDdDt3WVMeP3-I-">
    <mxGraphModel dx="1188" dy="759" grid="1" gridSize="11" guides="1" tooltips="1" connect="1" arrows="1" fold="1" page="1" pageScale="1" pageWidth="850" pageHeight="1100" math="0" shadow="0">
      <root>
        <mxCell id="0" />
        <mxCell id="1" parent="0" />
        <mxCell id="Fd8v1-B2ItSO-URBfw7D-23" value="" style="ellipse;whiteSpace=wrap;html=1;dashed=1;dashPattern=12 12;fillColor=#f8cecc;strokeColor=#b85450;" vertex="1" parent="1">
          <mxGeometry x="401" y="212.5" width="177" height="226" as="geometry" />
        </mxCell>
        <mxCell id="Q6dyt-afnQoV5AG14skn-2" value="" style="shape=cylinder3;whiteSpace=wrap;html=1;boundedLbl=1;backgroundOutline=1;size=15;" parent="1" vertex="1">
          <mxGeometry x="439" y="255" width="99" height="141" as="geometry" />
        </mxCell>
        <mxCell id="Fd8v1-B2ItSO-URBfw7D-4" value="235.10" style="rounded=0;whiteSpace=wrap;html=1;strokeColor=none;" vertex="1" parent="1">
          <mxGeometry x="454" y="293" width="78" height="22" as="geometry" />
        </mxCell>
        <mxCell id="Q6dyt-afnQoV5AG14skn-96" value="" style="rounded=1;whiteSpace=wrap;html=1;fillColor=none;strokeColor=#d6b656;gradientColor=none;" parent="1" vertex="1">
          <mxGeometry x="608" y="430" width="182" height="322" as="geometry" />
        </mxCell>
        <mxCell id="Q6dyt-afnQoV5AG14skn-94" value="" style="rounded=1;whiteSpace=wrap;html=1;fillColor=none;strokeColor=#FFCCCC;strokeWidth=3;" parent="1" vertex="1">
          <mxGeometry x="22" y="105" width="385" height="110" as="geometry" />
        </mxCell>
        <mxCell id="Q6dyt-afnQoV5AG14skn-1" value="GHR" style="shape=cylinder3;whiteSpace=wrap;html=1;boundedLbl=1;backgroundOutline=1;size=15;" parent="1" vertex="1">
          <mxGeometry x="301" y="115" width="60" height="80" as="geometry" />
        </mxCell>
        <mxCell id="Q6dyt-afnQoV5AG14skn-11" value="" style="endArrow=classic;startArrow=classic;html=1;rounded=0;exitX=0.5;exitY=1;exitDx=0;exitDy=0;exitPerimeter=0;" parent="1" source="Q6dyt-afnQoV5AG14skn-1" target="Fd8v1-B2ItSO-URBfw7D-5" edge="1">
          <mxGeometry width="50" height="50" relative="1" as="geometry">
            <mxPoint x="242" y="355" as="sourcePoint" />
            <mxPoint x="292" y="305" as="targetPoint" />
            <Array as="points">
              <mxPoint x="330" y="341" />
            </Array>
          </mxGeometry>
        </mxCell>
        <mxCell id="Q6dyt-afnQoV5AG14skn-14" value="" style="dashed=0;outlineConnect=0;html=1;align=center;labelPosition=center;verticalLabelPosition=bottom;verticalAlign=top;shape=mxgraph.weblogos.oracle;fillColor=#FF0000;strokeColor=none" parent="1" vertex="1">
          <mxGeometry x="464.5" y="264" width="50" height="20" as="geometry" />
        </mxCell>
        <mxCell id="Q6dyt-afnQoV5AG14skn-28" value="LocalHR&lt;br&gt;(BioSoft)" style="shape=cylinder3;whiteSpace=wrap;html=1;boundedLbl=1;backgroundOutline=1;size=15;" parent="1" vertex="1">
          <mxGeometry x="692" y="255" width="60" height="80" as="geometry" />
        </mxCell>
        <mxCell id="Q6dyt-afnQoV5AG14skn-30" value="&lt;ul style=&quot;font-size: 9px;&quot;&gt;&lt;li style=&quot;font-size: 9px;&quot;&gt;Employee&lt;/li&gt;&lt;li style=&quot;font-size: 9px;&quot;&gt;Organization&lt;/li&gt;&lt;li style=&quot;font-size: 9px;&quot;&gt;Assignment&lt;/li&gt;&lt;li style=&quot;font-size: 9px;&quot;&gt;Payroll Invoice&lt;/li&gt;&lt;/ul&gt;" style="text;strokeColor=none;align=left;fillColor=none;html=1;verticalAlign=middle;whiteSpace=wrap;rounded=0;fontSize=9;" parent="1" vertex="1">
          <mxGeometry x="304.5" y="214" width="160" height="70" as="geometry" />
        </mxCell>
        <mxCell id="Q6dyt-afnQoV5AG14skn-32" value="&lt;ul style=&quot;font-size: 9px;&quot;&gt;&lt;li style=&quot;font-size: 9px;&quot;&gt;Payroll&lt;/li&gt;&lt;/ul&gt;" style="text;strokeColor=none;align=left;fillColor=none;html=1;verticalAlign=middle;whiteSpace=wrap;rounded=0;fontSize=9;" parent="1" vertex="1">
          <mxGeometry x="561" y="286" width="88" height="39" as="geometry" />
        </mxCell>
        <mxCell id="Q6dyt-afnQoV5AG14skn-35" value="MQ" style="sketch=0;points=[[0,0,0],[0.25,0,0],[0.5,0,0],[0.75,0,0],[1,0,0],[0,1,0],[0.25,1,0],[0.5,1,0],[0.75,1,0],[1,1,0],[0,0.25,0],[0,0.5,0],[0,0.75,0],[1,0.25,0],[1,0.5,0],[1,0.75,0]];outlineConnect=0;fontColor=#232F3E;fillColor=#E7157B;strokeColor=#ffffff;dashed=0;verticalLabelPosition=bottom;verticalAlign=top;align=center;html=1;fontSize=12;fontStyle=0;aspect=fixed;shape=mxgraph.aws4.resourceIcon;resIcon=mxgraph.aws4.mq;" parent="1" vertex="1">
          <mxGeometry x="330" y="270" width="25" height="25" as="geometry" />
        </mxCell>
        <mxCell id="Q6dyt-afnQoV5AG14skn-130" value="" style="edgeStyle=orthogonalEdgeStyle;rounded=0;orthogonalLoop=1;jettySize=auto;html=1;" parent="1" source="Q6dyt-afnQoV5AG14skn-44" target="Q6dyt-afnQoV5AG14skn-129" edge="1">
          <mxGeometry relative="1" as="geometry" />
        </mxCell>
        <mxCell id="Q6dyt-afnQoV5AG14skn-44" value="GMES&lt;br&gt;106.22" style="shape=cylinder3;whiteSpace=wrap;html=1;boundedLbl=1;backgroundOutline=1;size=15;" parent="1" vertex="1">
          <mxGeometry x="137" y="448" width="60" height="80" as="geometry" />
        </mxCell>
        <mxCell id="Q6dyt-afnQoV5AG14skn-45" value="" style="dashed=0;outlineConnect=0;html=1;align=center;labelPosition=center;verticalLabelPosition=bottom;verticalAlign=top;shape=mxgraph.weblogos.oracle;fillColor=#FF0000;strokeColor=none" parent="1" vertex="1">
          <mxGeometry x="189.5" y="525" width="50" height="20" as="geometry" />
        </mxCell>
        <mxCell id="Q6dyt-afnQoV5AG14skn-46" value="THPortal&lt;br&gt;235.30" style="shape=cylinder3;whiteSpace=wrap;html=1;boundedLbl=1;backgroundOutline=1;size=15;" parent="1" vertex="1">
          <mxGeometry x="328" y="385" width="57" height="80" as="geometry" />
        </mxCell>
        <mxCell id="Q6dyt-afnQoV5AG14skn-47" value="" style="dashed=0;outlineConnect=0;html=1;align=center;labelPosition=center;verticalLabelPosition=bottom;verticalAlign=top;shape=mxgraph.weblogos.oracle;fillColor=#FF0000;strokeColor=none" parent="1" vertex="1">
          <mxGeometry x="383" y="445" width="50" height="20" as="geometry" />
        </mxCell>
        <mxCell id="lLpENYsSZ-zx2UN3gXtN-9" value="" style="edgeStyle=orthogonalEdgeStyle;rounded=0;orthogonalLoop=1;jettySize=auto;html=1;entryX=0.392;entryY=0.855;entryDx=0;entryDy=0;entryPerimeter=0;exitX=1;exitY=0;exitDx=0;exitDy=27.5;exitPerimeter=0;" edge="1" parent="1" source="Q6dyt-afnQoV5AG14skn-44" target="Fd8v1-B2ItSO-URBfw7D-7">
          <mxGeometry relative="1" as="geometry">
            <mxPoint x="462" y="462" as="targetPoint" />
          </mxGeometry>
        </mxCell>
        <mxCell id="Q6dyt-afnQoV5AG14skn-51" value="&lt;ul style=&quot;font-size: 9px;&quot;&gt;&lt;li style=&quot;font-size: 9px;&quot;&gt;Line stop&lt;/li&gt;&lt;li style=&quot;font-size: 9px;&quot;&gt;Daily plan&lt;/li&gt;&lt;/ul&gt;" style="text;strokeColor=none;align=left;fillColor=none;html=1;verticalAlign=middle;whiteSpace=wrap;rounded=0;fontSize=9;" parent="1" vertex="1">
          <mxGeometry x="187" y="481.5" width="90" height="37" as="geometry" />
        </mxCell>
        <mxCell id="Q6dyt-afnQoV5AG14skn-52" value="DB Link" style="html=1;verticalLabelPosition=bottom;align=center;labelBackgroundColor=#ffffff;verticalAlign=top;strokeWidth=2;strokeColor=#0080F0;shadow=0;dashed=0;shape=mxgraph.ios7.icons.link;" parent="1" vertex="1">
          <mxGeometry x="390" y="472" width="20" height="17" as="geometry" />
        </mxCell>
        <mxCell id="Q6dyt-afnQoV5AG14skn-58" value="RFID&lt;br&gt;(Door)&lt;br&gt;235.16" style="shape=cylinder3;whiteSpace=wrap;html=1;boundedLbl=1;backgroundOutline=1;size=15;" parent="1" vertex="1">
          <mxGeometry x="661" y="545" width="60" height="80" as="geometry" />
        </mxCell>
        <mxCell id="Fd8v1-B2ItSO-URBfw7D-8" style="edgeStyle=orthogonalEdgeStyle;rounded=0;orthogonalLoop=1;jettySize=auto;html=1;exitX=0.5;exitY=1;exitDx=0;exitDy=0;exitPerimeter=0;entryX=0;entryY=0.5;entryDx=0;entryDy=0;" edge="1" parent="1" source="Q6dyt-afnQoV5AG14skn-57" target="Fd8v1-B2ItSO-URBfw7D-7">
          <mxGeometry relative="1" as="geometry" />
        </mxCell>
        <mxCell id="Q6dyt-afnQoV5AG14skn-57" value="KR&lt;div&gt;IDP&lt;br&gt;RFID&lt;/div&gt;" style="shape=cylinder3;whiteSpace=wrap;html=1;boundedLbl=1;backgroundOutline=1;size=15;" parent="1" vertex="1">
          <mxGeometry x="213" y="115" width="60" height="80" as="geometry" />
        </mxCell>
        <mxCell id="Q6dyt-afnQoV5AG14skn-61" value="Car In/Out&lt;br&gt;235.16" style="shape=cylinder3;whiteSpace=wrap;html=1;boundedLbl=1;backgroundOutline=1;size=15;" parent="1" vertex="1">
          <mxGeometry x="661" y="645" width="60" height="80" as="geometry" />
        </mxCell>
        <mxCell id="Q6dyt-afnQoV5AG14skn-82" value="" style="outlineConnect=0;dashed=0;verticalLabelPosition=bottom;verticalAlign=top;align=center;html=1;shape=mxgraph.aws3.ms_sql_instance_2;fillColor=#2E73B8;gradientColor=none;" parent="1" vertex="1">
          <mxGeometry x="752" y="295" width="20" height="20" as="geometry" />
        </mxCell>
        <mxCell id="Q6dyt-afnQoV5AG14skn-83" value="" style="outlineConnect=0;dashed=0;verticalLabelPosition=bottom;verticalAlign=top;align=center;html=1;shape=mxgraph.aws3.ms_sql_instance_2;fillColor=#2E73B8;gradientColor=none;" parent="1" vertex="1">
          <mxGeometry x="721" y="598" width="20" height="20" as="geometry" />
        </mxCell>
        <mxCell id="Q6dyt-afnQoV5AG14skn-84" value="" style="outlineConnect=0;dashed=0;verticalLabelPosition=bottom;verticalAlign=top;align=center;html=1;shape=mxgraph.aws3.ms_sql_instance_2;fillColor=#2E73B8;gradientColor=none;" parent="1" vertex="1">
          <mxGeometry x="721" y="695" width="20" height="20" as="geometry" />
        </mxCell>
        <mxCell id="Q6dyt-afnQoV5AG14skn-88" value="" style="endArrow=classic;html=1;rounded=0;exitX=0;exitY=0;exitDx=0;exitDy=52.5;exitPerimeter=0;" parent="1" edge="1">
          <mxGeometry width="50" height="50" relative="1" as="geometry">
            <mxPoint x="661" y="588.5" as="sourcePoint" />
            <mxPoint x="493" y="385" as="targetPoint" />
            <Array as="points">
              <mxPoint x="493" y="589" />
            </Array>
          </mxGeometry>
        </mxCell>
        <mxCell id="Q6dyt-afnQoV5AG14skn-89" value="" style="endArrow=classic;html=1;rounded=0;exitX=0;exitY=0;exitDx=0;exitDy=52.5;exitPerimeter=0;" parent="1" edge="1">
          <mxGeometry width="50" height="50" relative="1" as="geometry">
            <mxPoint x="661" y="688.5" as="sourcePoint" />
            <mxPoint x="493" y="585" as="targetPoint" />
            <Array as="points">
              <mxPoint x="493" y="689" />
            </Array>
          </mxGeometry>
        </mxCell>
        <mxCell id="Q6dyt-afnQoV5AG14skn-91" value="MQ" style="sketch=0;points=[[0,0,0],[0.25,0,0],[0.5,0,0],[0.75,0,0],[1,0,0],[0,1,0],[0.25,1,0],[0.5,1,0],[0.75,1,0],[1,1,0],[0,0.25,0],[0,0.5,0],[0,0.75,0],[1,0.25,0],[1,0.5,0],[1,0.75,0]];outlineConnect=0;fontColor=#232F3E;fillColor=#E7157B;strokeColor=#ffffff;dashed=0;verticalLabelPosition=bottom;verticalAlign=top;align=center;html=1;fontSize=12;fontStyle=0;aspect=fixed;shape=mxgraph.aws4.resourceIcon;resIcon=mxgraph.aws4.mq;" parent="1" vertex="1">
          <mxGeometry x="244" y="343" width="25" height="25" as="geometry" />
        </mxCell>
        <mxCell id="Q6dyt-afnQoV5AG14skn-95" value="LGETH DB server" style="shape=ext;margin=3;double=1;whiteSpace=wrap;html=1;align=center;fillColor=#d5e8d4;strokeColor=#82b366;" parent="1" vertex="1">
          <mxGeometry x="400" y="10" width="172" height="56" as="geometry" />
        </mxCell>
        <mxCell id="Q6dyt-afnQoV5AG14skn-99" value="RFID" style="text;html=1;strokeColor=#d6b656;fillColor=#fff2cc;align=center;verticalAlign=middle;whiteSpace=wrap;rounded=0;fontStyle=1" parent="1" vertex="1">
          <mxGeometry x="661" y="400" width="60" height="30" as="geometry" />
        </mxCell>
        <mxCell id="Q6dyt-afnQoV5AG14skn-100" value="TH&lt;br&gt;GPDM&lt;br&gt;235.60" style="shape=cylinder3;whiteSpace=wrap;html=1;boundedLbl=1;backgroundOutline=1;size=15;" parent="1" vertex="1">
          <mxGeometry x="270" y="645" width="60" height="80" as="geometry" />
        </mxCell>
        <mxCell id="Q6dyt-afnQoV5AG14skn-101" value="" style="dashed=0;outlineConnect=0;html=1;align=center;labelPosition=center;verticalLabelPosition=bottom;verticalAlign=top;shape=mxgraph.weblogos.oracle;fillColor=#FF0000;strokeColor=none" parent="1" vertex="1">
          <mxGeometry x="333" y="705" width="50" height="20" as="geometry" />
        </mxCell>
        <mxCell id="Q6dyt-afnQoV5AG14skn-102" value="THPortal&lt;br&gt;Web&lt;br&gt;235.17" style="shape=cylinder3;whiteSpace=wrap;html=1;boundedLbl=1;backgroundOutline=1;size=15;" parent="1" vertex="1">
          <mxGeometry x="513" y="760" width="60" height="80" as="geometry" />
        </mxCell>
        <mxCell id="Q6dyt-afnQoV5AG14skn-107" value="" style="image;aspect=fixed;html=1;points=[];align=center;fontSize=12;image=img/lib/azure2/databases/Azure_Database_PostgreSQL_Server.svg;" parent="1" vertex="1">
          <mxGeometry x="721" y="485" width="22.5" height="30" as="geometry" />
        </mxCell>
        <mxCell id="Q6dyt-afnQoV5AG14skn-108" value="" style="endArrow=classic;html=1;rounded=0;entryX=0;entryY=0.5;entryDx=0;entryDy=0;entryPerimeter=0;" parent="1" source="Q6dyt-afnQoV5AG14skn-2" target="Q6dyt-afnQoV5AG14skn-102" edge="1">
          <mxGeometry width="50" height="50" relative="1" as="geometry">
            <mxPoint x="471.70000000000005" y="513.6499999999999" as="sourcePoint" />
            <mxPoint x="502" y="725" as="targetPoint" />
            <Array as="points">
              <mxPoint x="484" y="759" />
            </Array>
          </mxGeometry>
        </mxCell>
        <mxCell id="Q6dyt-afnQoV5AG14skn-109" value="HQ" style="text;html=1;strokeColor=#b85450;fillColor=#f8cecc;align=center;verticalAlign=middle;whiteSpace=wrap;rounded=0;fontStyle=1" parent="1" vertex="1">
          <mxGeometry x="197" y="35" width="60" height="30" as="geometry" />
        </mxCell>
        <mxCell id="Q6dyt-afnQoV5AG14skn-114" value="DB Link" style="html=1;verticalLabelPosition=bottom;align=center;labelBackgroundColor=#ffffff;verticalAlign=top;strokeWidth=2;strokeColor=#0080F0;shadow=0;dashed=0;shape=mxgraph.ios7.icons.link;" parent="1" vertex="1">
          <mxGeometry x="434" y="405" width="20" height="20" as="geometry" />
        </mxCell>
        <mxCell id="Q6dyt-afnQoV5AG14skn-115" value="HQ&lt;br&gt;GPDM&lt;br&gt;235.60" style="shape=cylinder3;whiteSpace=wrap;html=1;boundedLbl=1;backgroundOutline=1;size=15;dashed=1;dashPattern=1 1;" parent="1" vertex="1">
          <mxGeometry x="57" y="120" width="60" height="80" as="geometry" />
        </mxCell>
        <mxCell id="Q6dyt-afnQoV5AG14skn-117" value="" style="endArrow=classic;startArrow=classic;html=1;rounded=0;exitX=0.5;exitY=1;exitDx=0;exitDy=0;exitPerimeter=0;entryX=0.017;entryY=0.588;entryDx=0;entryDy=0;entryPerimeter=0;" parent="1" edge="1" target="Q6dyt-afnQoV5AG14skn-100" source="Q6dyt-afnQoV5AG14skn-115">
          <mxGeometry width="50" height="50" relative="1" as="geometry">
            <mxPoint x="117" y="741.5" as="sourcePoint" />
            <mxPoint x="197" y="742" as="targetPoint" />
            <Array as="points">
              <mxPoint x="88" y="693" />
            </Array>
          </mxGeometry>
        </mxCell>
        <mxCell id="Q6dyt-afnQoV5AG14skn-118" value="" style="rounded=1;whiteSpace=wrap;html=1;fillColor=none;strokeColor=#FFCCCC;strokeWidth=3;" parent="1" vertex="1">
          <mxGeometry x="398" y="752" width="394" height="164" as="geometry" />
        </mxCell>
        <mxCell id="Q6dyt-afnQoV5AG14skn-119" value="PDM" style="text;html=1;strokeColor=#d79b00;fillColor=#ffe6cc;align=center;verticalAlign=middle;whiteSpace=wrap;rounded=0;fontStyle=1" parent="1" vertex="1">
          <mxGeometry x="145" y="650" width="60" height="30" as="geometry" />
        </mxCell>
        <mxCell id="Q6dyt-afnQoV5AG14skn-121" value="&lt;ul style=&quot;font-size: 10px;&quot;&gt;&lt;li style=&quot;&quot;&gt;&lt;/li&gt;&lt;li style=&quot;&quot;&gt;Wordpress&lt;/li&gt;&lt;li style=&quot;&quot;&gt;HR Education&lt;/li&gt;&lt;li style=&quot;&quot;&gt;Line Audit(Simp)&lt;/li&gt;&lt;li style=&quot;&quot;&gt;Commuting&lt;/li&gt;&lt;/ul&gt;" style="text;strokeColor=none;align=left;fillColor=none;html=1;verticalAlign=middle;whiteSpace=wrap;rounded=0;fontSize=9;" parent="1" vertex="1">
          <mxGeometry x="518" y="847" width="120" height="50" as="geometry" />
        </mxCell>
        <mxCell id="Q6dyt-afnQoV5AG14skn-126" value="" style="shape=image;html=1;verticalAlign=top;verticalLabelPosition=bottom;labelBackgroundColor=#ffffff;imageAspect=0;aspect=fixed;image=https://cdn3.iconfinder.com/data/icons/drifting/Me.png;rotation=15;" parent="1" vertex="1">
          <mxGeometry x="570.04" y="804.12" width="33" height="33" as="geometry" />
        </mxCell>
        <mxCell id="Q6dyt-afnQoV5AG14skn-129" value="HQ&lt;br&gt;GMES&lt;br&gt;116.22" style="shape=cylinder3;whiteSpace=wrap;html=1;boundedLbl=1;backgroundOutline=1;size=15;dashed=1;dashPattern=1 2;" parent="1" vertex="1">
          <mxGeometry x="137" y="115" width="60" height="80" as="geometry" />
        </mxCell>
        <mxCell id="Q6dyt-afnQoV5AG14skn-132" value="MySQL&lt;br&gt;MS SQL&lt;br&gt;235.119" style="shape=cylinder3;whiteSpace=wrap;html=1;boundedLbl=1;backgroundOutline=1;size=15;" parent="1" vertex="1">
          <mxGeometry x="602" y="757.12" width="60" height="80" as="geometry" />
        </mxCell>
        <mxCell id="Q6dyt-afnQoV5AG14skn-135" value="Boy" style="text;html=1;strokeColor=#d6b656;fillColor=#fff2cc;align=center;verticalAlign=middle;whiteSpace=wrap;rounded=0;fontStyle=1" parent="1" vertex="1">
          <mxGeometry x="692" y="785" width="60" height="30" as="geometry" />
        </mxCell>
        <mxCell id="Q6dyt-afnQoV5AG14skn-59" value="&lt;div&gt;IDP&amp;amp;&lt;/div&gt;Face Scan&lt;br&gt;235.125" style="shape=cylinder3;whiteSpace=wrap;html=1;boundedLbl=1;backgroundOutline=1;size=15;" parent="1" vertex="1">
          <mxGeometry x="661" y="438.5" width="60" height="80" as="geometry" />
        </mxCell>
        <mxCell id="lLpENYsSZ-zx2UN3gXtN-8" value="AMUZ&lt;div&gt;Web&lt;br&gt;235.41&lt;/div&gt;" style="shape=cylinder3;whiteSpace=wrap;html=1;boundedLbl=1;backgroundOutline=1;size=15;" vertex="1" parent="1">
          <mxGeometry x="423" y="760" width="60" height="80" as="geometry" />
        </mxCell>
        <mxCell id="lLpENYsSZ-zx2UN3gXtN-13" style="edgeStyle=orthogonalEdgeStyle;rounded=0;orthogonalLoop=1;jettySize=auto;html=1;exitX=1;exitY=0;exitDx=0;exitDy=27.5;exitPerimeter=0;strokeColor=#FF7E29;" edge="1" parent="1" source="Q6dyt-afnQoV5AG14skn-59" target="Q6dyt-afnQoV5AG14skn-57">
          <mxGeometry relative="1" as="geometry">
            <Array as="points">
              <mxPoint x="781" y="466" />
              <mxPoint x="781" y="85" />
              <mxPoint x="242" y="85" />
            </Array>
          </mxGeometry>
        </mxCell>
        <mxCell id="Fd8v1-B2ItSO-URBfw7D-2" value="" style="outlineConnect=0;dashed=0;verticalLabelPosition=bottom;verticalAlign=top;align=center;html=1;shape=mxgraph.aws3.mysql_db_instance_2;fillColor=#2E73B8;gradientColor=none;" vertex="1" parent="1">
          <mxGeometry x="668" y="809.62" width="24" height="22" as="geometry" />
        </mxCell>
        <mxCell id="Fd8v1-B2ItSO-URBfw7D-5" value="M-HR" style="rounded=1;whiteSpace=wrap;html=1;" vertex="1" parent="1">
          <mxGeometry x="444" y="332.5" width="43" height="19.5" as="geometry" />
        </mxCell>
        <mxCell id="Fd8v1-B2ItSO-URBfw7D-6" value="MCS" style="rounded=1;whiteSpace=wrap;html=1;" vertex="1" parent="1">
          <mxGeometry x="490.5" y="332.75" width="43" height="19.5" as="geometry" />
        </mxCell>
        <mxCell id="Fd8v1-B2ItSO-URBfw7D-7" value="THPortal" style="rounded=1;whiteSpace=wrap;html=1;fillColor=#fff2cc;strokeColor=#d6b656;" vertex="1" parent="1">
          <mxGeometry x="441" y="357.5" width="96" height="26.5" as="geometry" />
        </mxCell>
        <mxCell id="Fd8v1-B2ItSO-URBfw7D-11" style="edgeStyle=orthogonalEdgeStyle;rounded=0;orthogonalLoop=1;jettySize=auto;html=1;entryX=0;entryY=0;entryDx=0;entryDy=52.5;entryPerimeter=0;" edge="1" parent="1" source="Fd8v1-B2ItSO-URBfw7D-7" target="Q6dyt-afnQoV5AG14skn-59">
          <mxGeometry relative="1" as="geometry">
            <Array as="points">
              <mxPoint x="495" y="491" />
            </Array>
          </mxGeometry>
        </mxCell>
        <mxCell id="Fd8v1-B2ItSO-URBfw7D-13" value="DMES" style="rounded=0;whiteSpace=wrap;html=1;strokeColor=none;" vertex="1" parent="1">
          <mxGeometry x="340" y="393" width="43" height="18" as="geometry" />
        </mxCell>
        <mxCell id="Fd8v1-B2ItSO-URBfw7D-14" style="edgeStyle=orthogonalEdgeStyle;rounded=0;orthogonalLoop=1;jettySize=auto;html=1;entryX=0.167;entryY=1.075;entryDx=0;entryDy=0;entryPerimeter=0;" edge="1" parent="1" source="Q6dyt-afnQoV5AG14skn-46" target="Fd8v1-B2ItSO-URBfw7D-7">
          <mxGeometry relative="1" as="geometry" />
        </mxCell>
        <mxCell id="Q6dyt-afnQoV5AG14skn-122" value="&lt;ul style=&quot;font-size: 9px;&quot;&gt;&lt;li style=&quot;font-size: 9px;&quot;&gt;Car booking&lt;/li&gt;&lt;/ul&gt;" style="text;strokeColor=none;align=left;fillColor=none;html=1;verticalAlign=middle;whiteSpace=wrap;rounded=0;fontSize=9;" parent="1" vertex="1">
          <mxGeometry x="253" y="415.5" width="82" height="37" as="geometry" />
        </mxCell>
        <mxCell id="Fd8v1-B2ItSO-URBfw7D-15" value="&lt;div&gt;NEW DB&lt;/div&gt;&lt;div&gt;235.11&lt;/div&gt;" style="shape=cylinder3;whiteSpace=wrap;html=1;boundedLbl=1;backgroundOutline=1;size=15;fillColor=#f8cecc;strokeColor=#b85450;" vertex="1" parent="1">
          <mxGeometry x="243" y="771.62" width="90" height="98" as="geometry" />
        </mxCell>
        <mxCell id="Fd8v1-B2ItSO-URBfw7D-17" style="edgeStyle=orthogonalEdgeStyle;rounded=0;orthogonalLoop=1;jettySize=auto;html=1;exitX=1;exitY=0.5;exitDx=0;exitDy=0;entryX=0.5;entryY=1;entryDx=0;entryDy=0;entryPerimeter=0;" edge="1" parent="1" source="Fd8v1-B2ItSO-URBfw7D-7" target="Q6dyt-afnQoV5AG14skn-28">
          <mxGeometry relative="1" as="geometry" />
        </mxCell>
        <mxCell id="Fd8v1-B2ItSO-URBfw7D-18" value="&lt;ul style=&quot;font-size: 9px;&quot;&gt;&lt;li style=&quot;font-size: 9px;&quot;&gt;Time (Face scan)&lt;/li&gt;&lt;/ul&gt;" style="text;strokeColor=none;align=left;fillColor=none;html=1;verticalAlign=middle;whiteSpace=wrap;rounded=0;fontSize=9;" vertex="1" parent="1">
          <mxGeometry x="547" y="343" width="121" height="39" as="geometry" />
        </mxCell>
        <mxCell id="Fd8v1-B2ItSO-URBfw7D-24" value="" style="shape=flexArrow;endArrow=classic;html=1;rounded=0;entryX=0.785;entryY=0.011;entryDx=0;entryDy=0;entryPerimeter=0;dashed=1;fillColor=#f8cecc;strokeColor=#b85450;" edge="1" parent="1">
          <mxGeometry width="50" height="50" relative="1" as="geometry">
            <mxPoint x="464.49571698736855" y="435.4055517144916" as="sourcePoint" />
            <mxPoint x="328.4500000000001" y="780.5979999999998" as="targetPoint" />
          </mxGeometry>
        </mxCell>
        <mxCell id="Fd8v1-B2ItSO-URBfw7D-26" value="" style="sketch=0;outlineConnect=0;fontColor=#232F3E;gradientColor=none;fillColor=#C925D1;strokeColor=none;dashed=0;verticalLabelPosition=bottom;verticalAlign=top;align=center;html=1;fontSize=12;fontStyle=0;aspect=fixed;pointerEvents=1;shape=mxgraph.aws4.rds_mariadb_instance_alt;" vertex="1" parent="1">
          <mxGeometry x="253" y="799" width="70" height="70" as="geometry" />
        </mxCell>
      </root>
    </mxGraphModel>
  </diagram>
  <diagram id="XA4Lyr0rWig8p5PZq_95" name="Page-2">
    <mxGraphModel dx="1443" dy="913" grid="1" gridSize="11" guides="1" tooltips="1" connect="1" arrows="1" fold="1" page="1" pageScale="1" pageWidth="850" pageHeight="1100" math="0" shadow="0">
      <root>
        <mxCell id="0" />
        <mxCell id="1" parent="0" />
      </root>
    </mxGraphModel>
  </diagram>
</mxfile>
